<svg width="689" height="644" viewBox="0 0 689 644" fill="none" xmlns="http://www.w3.org/2000/svg">
<path opacity="0.4" fill-rule="evenodd" clip-rule="evenodd" d="M410.898 94.0388C514.032 115.436 615.705 179.062 625.059 294.093C634.686 412.48 550.427 514.037 448.929 561.752C353.898 606.427 246.459 584.965 179.757 503.434C111.254 419.702 93.0972 294.695 149.179 195.363C203.306 99.4931 312.391 73.6018 410.898 94.0388Z" fill="#FFD60A"/>
<path opacity="0.35" fill-rule="evenodd" clip-rule="evenodd" d="M579.711 211.094C624.952 301.192 633.492 415.158 541.712 490.189C447.255 567.408 309.37 564.175 206.539 516.165C110.26 471.215 62.4287 377.847 90.5614 279.556C119.453 178.612 214.28 91.0734 332.963 74.4625C447.509 58.4305 536.5 125.039 579.711 211.094Z" fill="#FFE358"/>
</svg>
